<svg width="328" height="198" viewBox="0 0 328 198" fill="none" xmlns="http://www.w3.org/2000/svg">
        <path d="M56.2365 107.571H79.0253V45.8973H56.2365V20.7936H131.312V45.8973H108.507V107.587H131.296V132.691H56.2365V107.571Z" fill="#0066CC"/>
        <path d="M239.39 132.674L179.732 65.6051V132.674H149.904V20.7936H183.087L242.414 88.2083V20.7936H271.912V132.691H239.39V132.674Z" fill="#0066CC"/>
        <path d="M86.495 191.749C86.495 192.867 86.2801 193.822 85.834 194.595C85.3878 195.384 84.8259 196.026 84.1318 196.519C83.4377 197.029 82.628 197.391 81.7191 197.638C80.8102 197.885 79.9013 198 78.9758 198H54.0387C53.1629 198 52.2705 197.868 51.3781 197.605C50.4857 197.342 49.6759 196.947 48.9653 196.404C48.2547 195.861 47.6764 195.203 47.2467 194.414C46.817 193.624 46.5857 192.736 46.5857 191.732V185.925H56.2697V189.939H76.7945V171.169H70.1181V163.125H86.495V191.749Z" fill="#666666"/>
        <path d="M100.839 163.141V189.956H121.364V163.141H131.048V191.732C131.048 192.736 130.817 193.624 130.37 194.414C129.908 195.203 129.329 195.861 128.619 196.404C127.908 196.947 127.115 197.342 126.239 197.605C125.363 197.868 124.487 198 123.611 198H98.6578C97.7158 198 96.7904 197.885 95.9145 197.638C95.0387 197.391 94.2454 197.029 93.5348 196.519C92.8242 196.009 92.2624 195.368 91.8327 194.595C91.4196 193.805 91.2047 192.867 91.2047 191.749V163.141H100.839Z" fill="#666666"/>
        <path d="M165.438 198L145.508 177.108V198H135.758V163.141H145.938L165.967 184.132V163.141H175.601V197.984H165.438V198Z" fill="#666666"/>
        <path d="M190.028 163.141V197.984H180.393V163.141H190.028Z" fill="#666666"/>
        <path d="M194.721 169.409C194.721 168.29 194.936 167.336 195.349 166.563C195.762 165.773 196.341 165.132 197.051 164.638C197.762 164.145 198.555 163.766 199.431 163.52C200.307 163.273 201.216 163.158 202.174 163.158H227.144C228.02 163.158 228.896 163.289 229.772 163.552C230.648 163.816 231.441 164.21 232.152 164.753C232.862 165.296 233.441 165.954 233.903 166.744C234.366 167.533 234.581 168.422 234.581 169.425V191.765C234.581 192.769 234.349 193.657 233.903 194.447C233.441 195.236 232.862 195.894 232.152 196.437C231.441 196.98 230.648 197.375 229.772 197.638C228.896 197.901 228.02 198.033 227.144 198.033H202.174C201.232 198.033 200.307 197.918 199.431 197.671C198.555 197.424 197.762 197.062 197.051 196.552C196.341 196.042 195.779 195.401 195.349 194.628C194.936 193.838 194.721 192.9 194.721 191.782V169.409ZM224.897 189.956V171.186H204.372V189.956H224.897Z" fill="#666666"/>
        <path d="M266.888 177.667C267.401 177.519 267.698 177.289 267.764 176.993V171.63C267.698 171.449 267.566 171.301 267.401 171.218C267.236 171.12 267.07 171.037 266.888 170.972H239.291V163.158H273.019C273.532 163.158 274.061 163.322 274.639 163.635C275.201 163.947 275.73 164.358 276.192 164.836C276.672 165.313 277.052 165.856 277.366 166.431C277.68 167.007 277.828 167.55 277.828 168.076V179.246C277.828 180.431 277.564 181.467 277.035 182.323C276.506 183.178 275.812 183.885 274.953 184.412C274.094 184.955 273.135 185.35 272.044 185.58C270.97 185.827 269.88 185.942 268.789 185.942L281.431 198H268.244L254.94 185.942H249.09V198H239.291V177.667H266.888Z" fill="#666666"/>
        <path d="M46.7013 153.485H39.9919C31.3986 153.485 25.2842 151.708 21.6485 148.138C18.0129 144.568 16.1951 138.695 16.1951 130.503V96.483C16.1951 91.4985 15.1044 87.9287 12.923 85.7901C10.7416 83.6515 7.99839 82.5823 4.72632 82.5823H0V71.2313H4.72632C7.99839 71.2313 10.7251 70.162 12.9065 68.007C15.0879 65.8519 16.1951 62.2822 16.1951 57.2647V23.0803C16.1951 14.8549 18.0129 8.94915 21.6485 5.36291C25.2842 1.77667 31.3986 0 39.9919 0H46.7179V11.3509H42.5369C35.6292 11.3509 31.5639 12.8973 30.3575 15.99C29.6304 17.7831 29.2668 20.8759 29.2668 25.2846V58.8769C29.2668 67.2173 25.4494 73.1725 17.8311 76.7423C25.4494 80.3121 29.2668 86.2672 29.2668 94.6077V128.2C29.2668 134.879 30.4236 138.975 32.7207 140.521C34.2906 141.591 37.5627 142.134 42.5369 142.134H46.7179V153.485H46.7013Z" fill="#666666"/>
        <path d="M328 82.5823H323.455C320.183 82.5823 317.457 83.6515 315.292 85.7901C313.11 87.9287 312.02 91.4985 312.02 96.483V130.503C312.02 138.695 310.202 144.585 306.566 148.138C302.931 151.708 296.8 153.485 288.19 153.485H281.282V142.134H285.661C291.131 142.134 294.717 141.295 296.42 139.633C298.122 137.972 298.981 134.155 298.981 128.2V94.6077C298.981 86.2672 302.782 80.3121 310.384 76.7423C302.782 73.1725 298.981 67.2173 298.981 58.8769V25.2846C298.981 18.7373 297.758 14.6246 295.329 12.9631C293.742 11.8938 290.52 11.3509 285.661 11.3509H281.282V0H288.19C296.8 0 302.914 1.79312 306.566 5.36291C310.202 8.94915 312.02 14.8549 312.02 23.0803V57.2647C312.02 62.2822 313.11 65.8519 315.292 68.007C317.473 70.162 320.183 71.2313 323.455 71.2313H328V82.5823Z" fill="#666666"/>
      
</svg>